{
  "accessors": [
    {
      "bufferView": 0,
      "componentType": 5126,
      "count": 65535,
      "max": [
        0.10583268851041794,
        0.23895923793315887,
        0.10079944133758545
      ],
      "min": [
        -0.1632481962442398,
        -0.2163366973400116,
        -0.15045666694641113
      ],
      "type": "VEC3"
    },
    {
      "bufferView": 0,
      "byteOffset": 786420,
      "componentType": 5126,
      "count": 65535,
      "max": [
        0.9999914765357971,
        0.9999459981918335,
        0.9999985098838806
      ],
      "min": [
        -0.9981606602668762,
        -0.9990404844284058,
        -0.9842222332954407
      ],
      "type": "VEC3"
    },
    {
      "bufferView": 1,
      "componentType": 5126,
      "count": 65535,
      "max": [
        1.0,
        1.0,
        0.9921568632125854,
        1.0
      ],
      "min": [
        0.0,
        0.0,
        0.0,
        1.0
      ],
      "type": "VEC4"
    },
    {
      "bufferView": 0,
      "byteOffset": 1572840,
      "componentType": 5126,
      "count": 65535,
      "max": [
        0.15833675861358643,
        0.2432701289653778,
        0.1481136977672577
      ],
      "min": [
        -0.10857470333576202,
        -0.248996764421463,
        -0.11292804032564163
      ],
      "type": "VEC3"
    },
    {
      "bufferView": 0,
      "byteOffset": 2359260,
      "componentType": 5126,
      "count": 65535,
      "max": [
        0.9999253153800964,
        0.9999901652336121,
        0.9999858736991882
      ],
      "min": [
        -0.999908447265625,
        -0.9981207251548767,
        -0.9988555312156677
      ],
      "type": "VEC3"
    },
    {
      "bufferView": 1,
      "byteOffset": 1048560,
      "componentType": 5126,
      "count": 65535,
      "max": [
        1.0,
        1.0,
        1.0,
        1.0
      ],
      "min": [
        0.0,
        0.0,
        0.0,
        1.0
      ],
      "type": "VEC4"
    },
    {
      "bufferView": 0,
      "byteOffset": 3145680,
      "componentType": 5126,
      "count": 65535,
      "max": [
        0.1647747904062271,
        0.2468196004629135,
        0.15439452230930328
      ],
      "min": [
        -0.12139100581407547,
        -0.2404235452413559,
        -0.15423882007598877
      ],
      "type": "VEC3"
    },
    {
      "bufferView": 0,
      "byteOffset": 3932100,
      "componentType": 5126,
      "count": 65535,
      "max": [
        0.9974648952484131,
        0.999942421913147,
        0.9999616146087646
      ],
      "min": [
        -0.999997079372406,
        -0.9942752718925476,
        -0.9999149441719055
      ],
      "type": "VEC3"
    },
    {
      "bufferView": 1,
      "byteOffset": 2097120,
      "componentType": 5126,
      "count": 65535,
      "max": [
        1.0,
        0.9960784316062927,
        0.9843137264251709,
        1.0
      ],
      "min": [
        0.0,
        0.0,
        0.0,
        1.0
      ],
      "type": "VEC4"
    },
    {
      "bufferView": 0,
      "byteOffset": 4718520,
      "componentType": 5126,
      "count": 65535,
      "max": [
        0.16642962396144867,
        0.2439790666103363,
        0.15424197912216187
      ],
      "min": [
        -0.10870441049337387,
        -0.2473546266555786,
        -0.12195948511362076
      ],
      "type": "VEC3"
    },
    {
      "bufferView": 0,
      "byteOffset": 5504940,
      "componentType": 5126,
      "count": 65535,
      "max": [
        0.9999411106109619,
        0.9999783039093018,
        0.9997493028640747
      ],
      "min": [
        -0.9999985694885254,
        -0.999987781047821,
        -0.9893816709518433
      ],
      "type": "VEC3"
    },
    {
      "bufferView": 1,
      "byteOffset": 3145680,
      "componentType": 5126,
      "count": 65535,
      "max": [
        1.0,
        1.0,
        0.9921568632125854,
        1.0
      ],
      "min": [
        0.0,
        0.0,
        0.0,
        1.0
      ],
      "type": "VEC4"
    },
    {
      "bufferView": 0,
      "byteOffset": 6291360,
      "componentType": 5126,
      "count": 65535,
      "max": [
        0.1139034703373909,
        0.21391750872135162,
        0.09388282895088196
      ],
      "min": [
        -0.10146443545818329,
        -0.08427967131137848,
        -0.1543779820203781
      ],
      "type": "VEC3"
    },
    {
      "bufferView": 0,
      "byteOffset": 7077780,
      "componentType": 5126,
      "count": 65535,
      "max": [
        0.9999473690986633,
        0.9988511204719543,
        0.999902606010437
      ],
      "min": [
        -0.9999839663505554,
        -0.9997519254684448,
        -0.9999368786811829
      ],
      "type": "VEC3"
    },
    {
      "bufferView": 1,
      "byteOffset": 4194240,
      "componentType": 5126,
      "count": 65535,
      "max": [
        1.0,
        1.0,
        1.0,
        1.0
      ],
      "min": [
        0.0,
        0.0,
        0.0,
        1.0
      ],
      "type": "VEC4"
    },
    {
      "bufferView": 0,
      "byteOffset": 7864200,
      "componentType": 5126,
      "count": 65535,
      "max": [
        0.12356305867433548,
        0.2490362673997879,
        0.13915343582630157
      ],
      "min": [
        -0.11227191984653473,
        -0.16224277019500732,
        -0.12057197839021683
      ],
      "type": "VEC3"
    },
    {
      "bufferView": 0,
      "byteOffset": 8650620,
      "componentType": 5126,
      "count": 65535,
      "max": [
        0.999968945980072,
        0.999967098236084,
        0.9999855160713196
      ],
      "min": [
        -0.999711811542511,
        -0.9999914169311523,
        -0.9996882677078247
      ],
      "type": "VEC3"
    },
    {
      "bufferView": 1,
      "byteOffset": 5242800,
      "componentType": 5126,
      "count": 65535,
      "max": [
        1.0,
        1.0,
        1.0,
        1.0
      ],
      "min": [
        0.0,
        0.0,
        0.0,
        1.0
      ],
      "type": "VEC4"
    },
    {
      "bufferView": 0,
      "byteOffset": 9437040,
      "componentType": 5126,
      "count": 65535,
      "max": [
        0.1510552167892456,
        0.2489871233701706,
        0.14345556497573853
      ],
      "min": [
        -0.1664850413799286,
        -0.2392532080411911,
        -0.13541145622730255
      ],
      "type": "VEC3"
    },
    {
      "bufferView": 0,
      "byteOffset": 10223460,
      "componentType": 5126,
      "count": 65535,
      "max": [
        0.9999839663505554,
        0.9998929500579834,
        0.9999949932098389
      ],
      "min": [
        -0.9979114532470703,
        -0.9993610978126526,
        -0.8750218749046326
      ],
      "type": "VEC3"
    },
    {
      "bufferView": 1,
      "byteOffset": 6291360,
      "componentType": 5126,
      "count": 65535,
      "max": [
        1.0,
        0.9215686321258545,
        0.9529411792755127,
        1.0
      ],
      "min": [
        0.0,
        0.0,
        0.0,
        1.0
      ],
      "type": "VEC4"
    },
    {
      "bufferView": 0,
      "byteOffset": 11009880,
      "componentType": 5126,
      "count": 65535,
      "max": [
        0.08683809638023376,
        0.23643758893013,
        0.10055325925350189
      ],
      "min": [
        -0.09134494513273239,
        -0.21946237981319427,
        -0.005381220020353794
      ],
      "type": "VEC3"
    },
    {
      "bufferView": 0,
      "byteOffset": 11796300,
      "componentType": 5126,
      "count": 65535,
      "max": [
        0.9999856352806091,
        0.9999799132347107,
        0.9999797344207764
      ],
      "min": [
        -0.9991180300712585,
        -0.9999890923500061,
        -0.8842237591743469
      ],
      "type": "VEC3"
    },
    {
      "bufferView": 1,
      "byteOffset": 7339920,
      "componentType": 5126,
      "count": 65535,
      "max": [
        0.8980392217636108,
        0.7333333492279053,
        0.7372549176216125,
        1.0
      ],
      "min": [
        0.0,
        0.0,
        0.0,
        1.0
      ],
      "type": "VEC4"
    },
    {
      "bufferView": 0,
      "byteOffset": 12582720,
      "componentType": 5126,
      "count": 32710,
      "max": [
        0.025721348822116852,
        0.15142308175563812,
        0.10083230584859848
      ],
      "min": [
        -0.13833385705947876,
        -0.2175525426864624,
        -0.04634673893451691
      ],
      "type": "VEC3"
    },
    {
      "bufferView": 0,
      "byteOffset": 12975240,
      "componentType": 5126,
      "count": 32710,
      "max": [
        0.999872088432312,
        0.8534131646156311,
        0.9999979138374329
      ],
      "min": [
        -0.9324725866317749,
        -0.9999005794525146,
        -0.21091869473457336
      ],
      "type": "VEC3"
    },
    {
      "bufferView": 1,
      "byteOffset": 8388480,
      "componentType": 5126,
      "count": 32710,
      "max": [
        0.8549019694328308,
        0.9254902005195618,
        0.9686274528503418,
        1.0
      ],
      "min": [
        0.0,
        0.0,
        0.0,
        1.0
      ],
      "type": "VEC4"
    }
  ],
  "asset": {
    "extras": {
      "author": "Arturo J. Real (https://sketchfab.com/arturojreal)",
      "license": "CC-BY-4.0 (http://creativecommons.org/licenses/by/4.0/)",
      "source": "https://sketchfab.com/3d-models/3december2021-self-portrait-eca5a105fbb044cf86ccf2d42dc39438",
      "title": "3December2021 - Self Portrait"
    },
    "generator": "Sketchfab-12.82.2",
    "version": "2.0"
  },
  "bufferViews": [
    {
      "buffer": 0,
      "byteLength": 13367760,
      "byteStride": 12,
      "name": "floatBufferViews",
      "target": 34962
    },
    {
      "buffer": 0,
      "byteLength": 8911840,
      "byteOffset": 13367760,
      "byteStride": 16,
      "name": "floatBufferViews",
      "target": 34962
    }
  ],
  "buffers": [
    {
      "byteLength": 22279600,
      "uri": "scene.bin"
    }
  ],
  "materials": [
    {
      "doubleSided": true,
      "name": "Scene_-_Root",
      "pbrMetallicRoughness": {
        "metallicFactor": 0.0,
        "roughnessFactor": 0.6
      }
    }
  ],
  "meshes": [
    {
      "name": "Object_0",
      "primitives": [
        {
          "attributes": {
            "COLOR_0": 2,
            "NORMAL": 1,
            "POSITION": 0
          },
          "material": 0,
          "mode": 0
        }
      ]
    },
    {
      "name": "Object_1",
      "primitives": [
        {
          "attributes": {
            "COLOR_0": 5,
            "NORMAL": 4,
            "POSITION": 3
          },
          "material": 0,
          "mode": 0
        }
      ]
    },
    {
      "name": "Object_2",
      "primitives": [
        {
          "attributes": {
            "COLOR_0": 8,
            "NORMAL": 7,
            "POSITION": 6
          },
          "material": 0,
          "mode": 0
        }
      ]
    },
    {
      "name": "Object_3",
      "primitives": [
        {
          "attributes": {
            "COLOR_0": 11,
            "NORMAL": 10,
            "POSITION": 9
          },
          "material": 0,
          "mode": 0
        }
      ]
    },
    {
      "name": "Object_4",
      "primitives": [
        {
          "attributes": {
            "COLOR_0": 14,
            "NORMAL": 13,
            "POSITION": 12
          },
          "material": 0,
          "mode": 0
        }
      ]
    },
    {
      "name": "Object_5",
      "primitives": [
        {
          "attributes": {
            "COLOR_0": 17,
            "NORMAL": 16,
            "POSITION": 15
          },
          "material": 0,
          "mode": 0
        }
      ]
    },
    {
      "name": "Object_6",
      "primitives": [
        {
          "attributes": {
            "COLOR_0": 20,
            "NORMAL": 19,
            "POSITION": 18
          },
          "material": 0,
          "mode": 0
        }
      ]
    },
    {
      "name": "Object_7",
      "primitives": [
        {
          "attributes": {
            "COLOR_0": 23,
            "NORMAL": 22,
            "POSITION": 21
          },
          "material": 0,
          "mode": 0
        }
      ]
    },
    {
      "name": "Object_8",
      "primitives": [
        {
          "attributes": {
            "COLOR_0": 26,
            "NORMAL": 25,
            "POSITION": 24
          },
          "material": 0,
          "mode": 0
        }
      ]
    }
  ],
  "nodes": [
    {
      "children": [
        1
      ],
      "matrix": [
        2.024517344965574,
        6.212185136738749e-16,
        -1.5291578650585222,
        0.0,
        -0.012312063289892539,
        2.537040937243546,
        -0.016300465512048105,
        0.0,
        1.5291082634791735,
        0.020427727109851627,
        2.024451713607533,
        0.0,
        -1.0392268450232223e-05,
        -1.1025051207980131e-05,
        -4.211542182019912e-05,
        1.0
      ],
      "name": "Sketchfab_model"
    },
    {
      "children": [
        2,
        3,
        4,
        5,
        6,
        7,
        8,
        9,
        10
      ],
      "name": "Geode"
    },
    {
      "mesh": 0,
      "name": "Object_2"
    },
    {
      "mesh": 1,
      "name": "Object_3"
    },
    {
      "mesh": 2,
      "name": "Object_4"
    },
    {
      "mesh": 3,
      "name": "Object_5"
    },
    {
      "mesh": 4,
      "name": "Object_6"
    },
    {
      "mesh": 5,
      "name": "Object_7"
    },
    {
      "mesh": 6,
      "name": "Object_8"
    },
    {
      "mesh": 7,
      "name": "Object_9"
    },
    {
      "mesh": 8,
      "name": "Object_10"
    }
  ],
  "scene": 0,
  "scenes": [
    {
      "name": "Sketchfab_Scene",
      "nodes": [
        0
      ]
    }
  ]
}
